<?xml version="1.0" encoding="utf-8"?>
<!-- Generator: Adobe Illustrator 16.0.3, SVG Export Plug-In . SVG Version: 6.00 Build 0)  -->
<!DOCTYPE svg PUBLIC "-//W3C//DTD SVG 1.1//EN" "http://www.w3.org/Graphics/SVG/1.1/DTD/svg11.dtd">
<svg version="1.1" id="Layer_1" xmlns="http://www.w3.org/2000/svg" xmlns:xlink="http://www.w3.org/1999/xlink" x="0px" y="0px"
	 width="512px" height="512px" viewBox="0 0 512 512" enable-background="new 0 0 512 512" xml:space="preserve">
<g>
	<polygon fill="#00FC64" points="474,382.702 255.5,508.084 37,382.702 37,131.932 255.5,6.545 474,131.932 	"/>
	<g>
		<g>
			<path d="M97.465,292.039v-20.894c0-7.253-2.756-9.72-8.414-9.72h-8.27v-12.624h8.27c5.657,0,8.414-2.465,8.414-9.866V210.5
				c0-16.687,10.301-20.893,21.039-20.893h10.301v12.478h-9.14c-5.079,0-7.4,2.322-7.4,8.85v29.888
				c0,9.575-4.788,13.057-11.317,14.219c6.529,1.307,11.317,4.787,11.317,14.363v22.199c0,6.528,2.322,20.939,7.4,20.939h9.14
				v12.478h-10.301C107.767,325.021,97.465,308.725,97.465,292.039z"/>
		</g>
		<g>
			<g>
				<path d="M345.518,311.859l7.926-4.885c2.208,3.965,4.786,6.733,9.395,6.733c5.252,0,8.66-2.492,8.66-9.771v-44.964h9.767v45.147
					c0,12.438-7.461,18.337-17.967,18.337C353.995,322.458,348.463,317.665,345.518,311.859z"/>
				<path d="M390.382,309.464l8.017-4.421c2.95,4.886,6.728,8.752,14.369,8.752c6.36,0,10.876-3.409,10.876-8.566
					c0-5.438-3.688-7.835-10.504-10.876l-4.141-1.84c-9.127-4.053-14.656-8.66-14.656-18.331c0-9.312,7.19-15.943,17.599-15.943
					c8.292,0,13.915,3.132,17.692,9.859l-7.646,4.7c-2.397-4.144-5.163-6.082-10.046-6.082c-4.972,0-8.106,3.034-8.106,7.276
					c0,4.699,2.669,6.821,9.032,9.588l4.051,1.833c10.687,4.701,16.399,9.677,16.399,19.723c0,10.969-8.566,17.322-20.357,17.322
					C401.07,322.458,393.887,316.56,390.382,309.464z"/>
			</g>
			<g>
				<path d="M181.843,190.804h1.958l-13.42,21.617c0.097,0.05,0.157,0.096,0.181,0.146c0.025,0.047,0.061,0.096,0.11,0.143
					l15.377,30.394h-1.741l-14.798-29.232l-7.69,12.55v16.901h-0.761h-0.762v-52.59h0.762h0.761v32.932L181.843,190.804z"/>
				<path d="M216.517,243.395h-1.596l-3.264-15.886h-12.621l-3.41,15.886h-1.596l10.663-52.734h1.235L216.517,243.395z
					 M211.221,225.984l-5.875-31.335l-6.094,31.335H211.221z M205.055,190.661h0.073h0.145h0.073h0.073h0.144H205.055z"/>
				<path d="M228.484,194.503v48.892h-0.726h-0.797v-52.011v-0.073v-0.65h1.233l13.418,26.257l13.42-26.257h1.161v0.65v0.073v52.011
					h-0.761h-0.762v-48.963l-12.55,25.025h-1.016L228.484,194.503z M227.977,190.661h-0.073h-0.072h-0.073h-0.073h-0.071h-0.073
					h-0.073H227.977z M255.179,190.661h0.072h0.073h0.073h0.071h0.073h0.073h0.073H255.179z"/>
				<path d="M270.626,243.395v-0.726v-52.008h0.765h0.761v51.354h19.439v0.654v0.726H270.626z"/>
				<path d="M327.859,232.006c0,0.145,0,0.533,0,1.16c0,0.63-0.098,1.391-0.291,2.285c-0.193,0.895-0.497,1.85-0.906,2.865
					c-0.411,1.015-1.028,1.959-1.849,2.83c-0.968,0.968-2.333,1.704-4.099,2.211c-1.768,0.507-3.472,0.761-5.114,0.761
					c-1.645,0-3.337-0.254-5.078-0.761c-1.74-0.508-3.072-1.244-3.989-2.211c-0.822-0.87-1.439-1.838-1.849-2.902
					c-0.412-1.063-0.689-2.066-0.835-3.009c-0.146-0.944-0.219-1.753-0.219-2.43c0-0.676,0-1.087,0-1.233v-29.74
					c0-1.934,0.277-3.665,0.834-5.188c0.555-1.522,1.438-2.815,2.649-3.88c0.481-0.435,1.074-0.822,1.776-1.161
					c0.701-0.338,1.438-0.616,2.212-0.834c0.772-0.219,1.549-0.386,2.321-0.508c0.773-0.12,1.498-0.181,2.177-0.181
					c0.628,0,1.342,0.049,2.139,0.146c0.799,0.096,1.597,0.254,2.395,0.47c0.798,0.219,1.547,0.484,2.249,0.799
					c0.701,0.314,1.293,0.689,1.777,1.124c2.466,2.176,3.699,5.248,3.699,9.213V232.006z M326.336,201.831
					c0-1.692-0.217-3.145-0.653-4.353c-0.434-1.208-1.041-2.224-1.813-3.046c-0.435-0.484-1.004-0.907-1.704-1.271
					c-0.703-0.362-1.438-0.663-2.212-0.905c-0.774-0.242-1.549-0.411-2.321-0.508c-0.773-0.096-1.451-0.146-2.031-0.146
					c-1.113,0-2.284,0.134-3.519,0.399c-1.233,0.266-2.357,0.773-3.372,1.523c-1.015,0.75-1.85,1.789-2.503,3.119
					c-0.653,1.331-0.98,3.06-0.98,5.188v29.813c-0.047,1.208,0,2.249,0.146,3.119c0.145,0.869,0.386,1.791,0.726,2.757
					c0.336,0.968,0.87,1.837,1.597,2.611c0.771,0.822,1.932,1.438,3.479,1.85c1.547,0.411,3.022,0.616,4.426,0.616
					c0.725,0,1.475-0.047,2.249-0.144c0.771-0.097,1.535-0.254,2.284-0.472c0.75-0.219,1.439-0.482,2.066-0.799
					c0.63-0.313,1.138-0.688,1.524-1.124c0.725-0.774,1.256-1.62,1.597-2.538c0.337-0.919,0.58-1.777,0.724-2.576
					c0.146-0.797,0.219-1.751,0.219-2.865L326.336,201.831z"/>
				<path d="M360.719,232.006c0,0.145,0,0.533,0,1.16c0,0.63-0.1,1.391-0.291,2.285c-0.193,0.895-0.496,1.85-0.906,2.865
					c-0.411,1.015-1.027,1.959-1.849,2.83c-0.969,0.968-2.335,1.704-4.099,2.211c-1.768,0.507-3.471,0.761-5.114,0.761
					c-1.646,0-3.338-0.254-5.079-0.761c-1.739-0.508-3.072-1.244-3.988-2.211c-0.822-0.87-1.44-1.838-1.851-2.902
					c-0.411-1.063-0.688-2.066-0.834-3.009c-0.146-0.944-0.219-1.753-0.219-2.43c0-0.676,0-1.087,0-1.233v-29.74
					c0-1.934,0.279-3.665,0.834-5.188c0.557-1.522,1.439-2.815,2.649-3.88c0.481-0.435,1.075-0.822,1.776-1.161
					c0.701-0.338,1.438-0.616,2.213-0.834c0.772-0.219,1.548-0.386,2.32-0.508c0.775-0.12,1.498-0.181,2.178-0.181
					c0.627,0,1.341,0.049,2.139,0.146c0.799,0.096,1.596,0.254,2.395,0.47c0.797,0.219,1.547,0.484,2.248,0.799
					s1.294,0.689,1.777,1.124c2.467,2.176,3.7,5.248,3.7,9.213V232.006z M359.195,201.831c0-1.692-0.218-3.145-0.654-4.353
					c-0.434-1.208-1.04-2.224-1.813-3.046c-0.435-0.484-1.003-0.907-1.703-1.271c-0.702-0.362-1.438-0.663-2.212-0.905
					c-0.775-0.242-1.549-0.411-2.322-0.508c-0.773-0.096-1.45-0.146-2.03-0.146c-1.114,0-2.285,0.134-3.519,0.399
					c-1.233,0.266-2.358,0.773-3.374,1.523c-1.015,0.75-1.849,1.789-2.502,3.119c-0.652,1.331-0.979,3.06-0.979,5.188v29.813
					c-0.048,1.208,0,2.249,0.146,3.119c0.146,0.869,0.386,1.791,0.727,2.757c0.336,0.968,0.869,1.837,1.595,2.611
					c0.771,0.822,1.933,1.438,3.481,1.85c1.547,0.411,3.023,0.616,4.426,0.616c0.725,0,1.473-0.047,2.248-0.144
					c0.771-0.097,1.535-0.254,2.285-0.472c0.75-0.219,1.438-0.482,2.066-0.799c0.63-0.313,1.137-0.688,1.525-1.124
					c0.723-0.774,1.255-1.62,1.595-2.538c0.337-0.919,0.58-1.777,0.726-2.576c0.144-0.797,0.218-1.751,0.218-2.865L359.195,201.831z
					"/>
				<path d="M390.602,195.375c0.92,1.45,1.635,3.083,2.142,4.896c0.508,1.814,0.762,3.64,0.762,5.476
					c0,1.888-0.254,3.737-0.762,5.55c-0.507,1.814-1.222,3.421-2.142,4.825c-1.015,1.548-2.319,2.719-3.915,3.518
					c-1.596,0.797-3.846,1.196-6.748,1.196h-6.818v22.56h-0.796h-0.727V191.53v-0.869h0.869h7.472c2.613,0,4.8,0.411,6.566,1.231
					C388.269,192.716,389.637,193.875,390.602,195.375z M389.298,215.312c0.821-1.309,1.473-2.8,1.958-4.473
					c0.483-1.672,0.727-3.383,0.727-5.127c0-1.696-0.243-3.383-0.727-5.055c-0.485-1.672-1.137-3.164-1.958-4.473
					c-0.822-1.262-2.007-2.243-3.554-2.946c-1.549-0.702-3.483-1.055-5.806-1.055h-6.818v27.128h6.818
					c2.805,0,4.861-0.352,6.167-1.055C387.41,217.554,388.476,216.573,389.298,215.312z"/>
				<path d="M409.1,241.508c-1.208-1.063-2.116-2.489-2.721-4.28c-0.604-1.789-0.904-3.699-0.904-5.73h1.522
					c0,2.322,0.326,4.207,0.978,5.659c0.654,1.451,1.477,2.574,2.469,3.373c0.988,0.797,2.066,1.33,3.227,1.596
					c1.161,0.266,2.248,0.397,3.264,0.397c1.258,0,2.503-0.181,3.737-0.542c1.231-0.362,2.343-0.943,3.334-1.742
					c0.992-0.796,1.79-1.849,2.396-3.154c0.604-1.307,0.907-2.903,0.907-4.788c0-2.176-0.317-4.075-0.944-5.694
					c-0.629-1.619-1.462-3.058-2.501-4.317c-1.041-1.256-2.214-2.38-3.519-3.373c-1.306-0.99-2.636-1.97-3.99-2.938
					c-1.305-0.917-2.55-1.824-3.735-2.719c-1.187-0.896-2.263-1.897-3.229-3.011c-2.128-2.562-3.191-5.415-3.191-8.56
					c0-0.146,0-0.519,0-1.124c0-0.604,0.081-1.318,0.242-2.141c0.161-0.82,0.429-1.716,0.799-2.684
					c0.369-0.966,0.967-1.862,1.789-2.684c1.884-2.031,4.522-3.046,7.905-3.046c3.434,0,6.022,1.015,7.762,3.046
					c0.726,0.872,1.246,1.827,1.561,2.865c0.314,1.041,0.519,2.033,0.615,2.975c0.097,0.943,0.134,1.74,0.11,2.393
					c-0.025,0.653-0.038,1.005-0.038,1.053h-1.522c0.047-1.161,0.024-2.176-0.072-3.046c-0.097-0.872-0.278-1.779-0.544-2.722
					c-0.268-0.942-0.715-1.777-1.342-2.502c-0.727-0.821-1.621-1.45-2.684-1.885c-1.065-0.435-2.349-0.653-3.846-0.653
					c-2.949,0-5.199,0.846-6.744,2.539c-0.68,0.726-1.187,1.522-1.523,2.395c-0.341,0.87-0.581,1.681-0.727,2.43
					c-0.145,0.75-0.219,1.657-0.219,2.72c0,1.596,0.268,3.011,0.801,4.245c0.534,1.231,1.238,2.369,2.112,3.408
					c0.873,1.041,1.881,1.995,3.021,2.864c1.141,0.872,2.316,1.742,3.529,2.614c1.407,0.966,2.791,1.983,4.148,3.045
					c1.359,1.065,2.597,2.273,3.713,3.626c2.524,3.096,3.786,6.722,3.786,10.882c0,3.916-1.307,6.963-3.919,9.138
					c-2.128,1.742-4.787,2.613-7.979,2.613c-1.112,0-2.383-0.157-3.808-0.472C411.698,243.261,410.355,242.572,409.1,241.508z"/>
			</g>
		</g>
	</g>
</g>
</svg>
